# xmcd CD database file
#
# Track frame offsets:
#	150
#	15740
#	35847
#	55097
#	72097
#	100237
#	124985
#	147915
#	163477
#	184162
#	211355
#	241052
#
# Disc length: 3596 seconds
#
# Revision: 0
# Processed by: cddbd v1.5.1PL2 Copyright (c) Steve Scherf et al.
# Submitted via: CDex 1.51
#
DISCID=b00e0a0c
DTITLE=Various Artist - California Smooth Jazz
DYEAR=1900
DGENRE=Jazz
TTITLE0=Love Madness - Sherry Winston
TTITLE1=Stride - Sherry Winston
TTITLE2=California Mist - Don Randi and Quest
TTITLE3=Sunset on Sunset - Don Randi and Quest
TTITLE4=River of Dreams - Don Randi
TTITLE5=So Help Me - Don Randi and Quest
TTITLE6=I Don't Know - Greg Mathieson
TTITLE7=Portrait of Lauren - Bill Wolfer
TTITLE8=Tu Do Bem - Chris Boardman
TTITLE9=Far Away - Chris Boardman
TTITLE10=Paris - Chris Boardman
TTITLE11=Twilight - Rick Zunigar
EXTD=
EXTT0=
EXTT1=
EXTT2=
EXTT3=
EXTT4=
EXTT5=
EXTT6=
EXTT7=
EXTT8=
EXTT9=
EXTT10=
EXTT11=
PLAYORDER=
